<?xml version="1.0" standalone="no"?>
<!DOCTYPE svg PUBLIC "-//W3C//DTD SVG 20010904//EN"
 "http://www.w3.org/TR/2001/REC-SVG-20010904/DTD/svg10.dtd">
<svg version="1.0" xmlns="http://www.w3.org/2000/svg"
 width="602.000000pt" height="510.000000pt" viewBox="0 0 602.000000 510.000000"
 preserveAspectRatio="xMidYMid meet">

<g transform="translate(0.000000,510.000000) scale(0.100000,-0.100000)"
fill="#000000" stroke="none">
<path d="M2610 4781 c-162 -6 -178 -8 -220 -31 -58 -32 -114 -116 -159 -237
-37 -101 -36 -131 4 -153 14 -7 25 -16 25 -20 0 -11 -96 -20 -225 -20 -200 0
-284 -21 -441 -111 -186 -106 -305 -269 -367 -501 l-22 -83 0 -1035 0 -1035
28 -90 c73 -233 215 -405 412 -500 181 -87 73 -79 1215 -83 558 -1 1116 1
1240 7 217 8 228 10 305 40 122 47 202 98 290 186 125 125 207 289 225 449 14
117 14 1897 0 2016 -15 133 -34 201 -85 305 -97 197 -254 331 -475 405 -51 17
-97 23 -215 27 -190 7 -195 9 -195 68 0 25 -7 62 -15 82 -33 78 -192 271 -248
300 -23 11 -107 15 -465 17 -240 2 -516 1 -612 -3z m795 -200 l220 -6 19 -40
c10 -22 38 -75 63 -118 24 -44 41 -82 38 -85 -9 -9 -1321 -9 -1330 -1 -3 4 5
18 18 31 14 14 29 47 36 79 7 30 19 73 27 96 13 35 20 42 47 46 51 6 620 5
862 -2z m560 -470 c349 -8 352 -9 484 -95 118 -77 199 -183 244 -316 21 -65
21 -71 25 -955 4 -940 -3 -1171 -36 -1268 -63 -188 -240 -348 -418 -378 -84
-15 -1686 -23 -2089 -11 -253 8 -342 14 -382 26 -68 21 -201 121 -251 188 -56
75 -108 184 -124 259 -17 84 -16 1896 1 2029 17 126 87 265 175 348 75 70 130
104 225 141 l66 26 490 5 c750 9 1249 9 1590 1z"/>
<path d="M4155 3841 c-87 -39 -144 -150 -130 -251 19 -137 165 -255 272 -219
152 49 222 199 159 336 -60 129 -188 186 -301 134z m164 -147 c52 -43 51 -103
-2 -161 -16 -18 -31 -23 -68 -23 -41 0 -51 4 -78 35 -24 27 -31 45 -31 76 0
89 108 133 179 73z"/>
<path d="M1800 3789 c-33 -13 -68 -47 -87 -83 -40 -77 47 -196 144 -196 40 0
106 36 126 69 53 91 -21 222 -125 220 -18 0 -44 -5 -58 -10z"/>
<path d="M2915 3699 c-162 -24 -349 -97 -486 -190 -147 -99 -292 -266 -373
-426 -180 -359 -143 -805 93 -1140 181 -257 515 -454 816 -482 451 -43 922
239 1125 672 125 267 124 658 -2 912 -81 161 -234 344 -378 449 -219 161 -536
243 -795 205z m353 -214 c261 -61 529 -287 633 -535 52 -124 62 -181 61 -352
0 -106 -5 -176 -16 -216 -81 -319 -313 -577 -605 -677 -103 -35 -177 -46 -299
-46 -169 0 -297 41 -455 144 -203 132 -334 306 -404 534 -24 80 -26 103 -27
248 0 146 2 168 27 248 32 104 83 209 142 292 48 68 168 185 239 234 95 66
235 119 371 142 67 11 255 2 333 -16z"/>
<path d="M2873 3111 l-193 -199 0 -85 c0 -69 3 -87 18 -100 39 -35 60 -23 190
111 182 185 302 320 302 336 0 15 -106 136 -119 136 -3 0 -93 -90 -198 -199z"/>
<path d="M3262 2980 c-34 -5 -63 -16 -78 -31 -24 -23 -32 -49 -14 -49 14 0
126 -99 309 -273 90 -87 168 -157 172 -157 11 0 134 112 134 121 0 6 -278 276
-367 357 -51 45 -57 46 -156 32z"/>
<path d="M2429 2697 c-103 -86 -103 -72 -4 -181 47 -52 136 -142 198 -200
l112 -106 100 0 c107 0 145 6 145 23 0 5 -96 107 -213 226 -117 119 -224 233
-237 253 -14 21 -27 38 -31 38 -3 0 -34 -24 -70 -53z"/>
<path d="M3010 2719 c-34 -14 -66 -45 -80 -80 -19 -44 -4 -95 42 -145 40 -43
42 -44 102 -44 66 1 84 9 122 61 45 61 25 144 -49 201 -25 20 -96 23 -137 7z"/>
<path d="M3168 2252 l-247 -247 69 -74 68 -74 34 27 c55 46 367 377 374 398 5
18 -32 195 -45 210 -4 4 -117 -104 -253 -240z"/>
<path d="M1748 1711 c-32 -29 -33 -29 -17 -63 21 -43 144 -194 169 -208 36
-19 102 -7 122 23 9 15 -1 32 -88 147 -67 90 -112 130 -143 130 -6 0 -25 -13
-43 -29z"/>
<path d="M4292 1708 c-35 -24 -159 -169 -182 -213 -17 -32 -8 -50 40 -83 21
-14 41 -20 54 -16 52 14 222 237 212 277 -5 23 -53 57 -78 57 -7 0 -28 -10
-46 -22z"/>
<path d="M1730 4760 c-212 -9 -263 -16 -361 -53 -308 -116 -517 -351 -595
-669 -21 -90 -32 -506 -13 -529 10 -12 38 -18 101 -23 105 -7 95 -28 102 205
3 91 13 203 22 250 46 243 185 435 389 535 126 61 181 73 419 86 152 8 212 15
222 25 9 10 14 39 14 89 0 41 0 77 0 82 0 10 -73 10 -300 2z"/>
<path d="M4104 4755 c4 -11 12 -53 18 -94 6 -42 15 -80 19 -85 4 -5 104 -12
222 -17 177 -7 226 -12 278 -29 189 -63 342 -199 434 -385 63 -128 76 -195 84
-432 4 -126 11 -207 17 -213 6 -6 55 -14 109 -17 l97 -6 -6 214 c-8 250 -19
338 -53 434 -58 161 -129 270 -249 385 -91 87 -166 139 -267 185 -128 58 -177
66 -456 72 -244 6 -254 5 -247 -12z"/>
<path d="M835 3253 l-100 -4 6 -192 c4 -106 7 -428 8 -716 l1 -524 118 8 c64
3 119 9 122 12 7 7 3 1309 -5 1371 -6 46 -9 52 -28 50 -12 -1 -67 -4 -122 -5z"/>
<path d="M5152 3039 c2 -166 6 -222 16 -228 9 -5 10 -15 4 -32 -5 -13 -10 -64
-11 -114 -2 -49 -6 -152 -9 -228 -7 -136 -7 -137 15 -137 21 0 21 -1 7 -30 -9
-16 -12 -35 -8 -41 4 -8 3 -9 -4 -5 -9 5 -12 -44 -12 -193 l0 -201 119 0 120
0 3 708 c2 389 3 708 3 708 0 1 -55 4 -123 7 l-123 6 3 -220z m48 -513 c0 -1
-5 -17 -11 -34 -12 -34 -29 -34 -29 -1 0 11 5 17 10 14 6 -3 10 1 10 9 0 9 5
16 10 16 6 0 10 -2 10 -4z"/>
<path d="M753 1403 c8 -251 43 -400 131 -557 45 -81 147 -192 232 -252 79 -56
226 -126 329 -156 l80 -23 1181 -3 c650 -1 1354 2 1565 7 354 8 389 11 454 31
169 54 301 135 416 258 83 87 138 183 183 314 31 91 56 288 56 440 l0 108
-104 0 -104 0 -7 -117 c-13 -246 -44 -378 -116 -500 -51 -86 -180 -211 -264
-255 -134 -70 -30 -65 -1707 -71 -1363 -5 -1523 -4 -1580 10 -202 51 -357 180
-453 378 -54 110 -72 186 -80 330 -3 61 -8 138 -11 173 l-6 62 -100 0 -101 0
6 -177z"/>
</g>
</svg>
